<svg width="39" height="39" viewBox="0 0 39 39" fill="none" xmlns="http://www.w3.org/2000/svg">
<path d="M26.8125 16.9863H12.1875C12.0199 16.9863 11.8828 17.1234 11.8828 17.291V32.6016C11.8828 32.7691 12.0199 32.9062 12.1875 32.9062H26.8125C26.9801 32.9062 27.1172 32.7691 27.1172 32.6016V17.291C27.1172 17.1234 26.9801 16.9863 26.8125 16.9863ZM14.3203 19.4238H24.6797V23.8799H14.3203V19.4238ZM24.6797 30.4688H14.3203V26.0127H24.6797V30.4688Z" fill="#383838"/>
<path d="M16.1484 28.4883C16.1484 28.8115 16.2768 29.1215 16.5054 29.3501C16.734 29.5786 17.044 29.707 17.3672 29.707C17.6904 29.707 18.0004 29.5786 18.229 29.3501C18.4575 29.1215 18.5859 28.8115 18.5859 28.4883C18.5859 28.165 18.4575 27.8551 18.229 27.6265C18.0004 27.3979 17.6904 27.2695 17.3672 27.2695C17.044 27.2695 16.734 27.3979 16.5054 27.6265C16.2768 27.8551 16.1484 28.165 16.1484 28.4883ZM16.1484 21.709C16.1484 22.0322 16.2768 22.3422 16.5054 22.5708C16.734 22.7993 17.044 22.9277 17.3672 22.9277C17.6904 22.9277 18.0004 22.7993 18.229 22.5708C18.4575 22.3422 18.5859 22.0322 18.5859 21.709C18.5859 21.3858 18.4575 21.0758 18.229 20.8472C18.0004 20.6186 17.6904 20.4902 17.3672 20.4902C17.044 20.4902 16.734 20.6186 16.5054 20.8472C16.2768 21.0758 16.1484 21.3858 16.1484 21.709Z" fill="#383838"/>
<path d="M30.903 14.0499C29.1587 9.44531 24.7141 6.16992 19.5077 6.16992C14.3014 6.16992 9.85675 9.4415 8.11242 14.0461C4.83322 14.9106 2.41857 17.908 2.43761 21.4652C2.46046 25.4414 5.54542 28.6749 9.43019 29.0215C9.60919 29.0367 9.76154 28.8958 9.76154 28.7168V26.4164C9.76154 26.2641 9.64728 26.1346 9.49494 26.1155C8.46662 25.986 7.49542 25.5366 6.74894 24.8016C5.83488 23.9065 5.33214 22.703 5.33214 21.4271C5.33214 20.3607 5.67873 19.3553 6.32999 18.5174C6.96603 17.7023 7.86105 17.112 8.84748 16.853L10.2909 16.4722L10.8203 15.0744C11.1479 14.2061 11.6049 13.391 12.18 12.656C12.7475 11.9247 13.4216 11.2849 14.1757 10.7517C15.741 9.65098 17.5844 9.06826 19.5077 9.06826C21.4311 9.06826 23.2744 9.65098 24.8398 10.7555C25.5977 11.2887 26.268 11.9285 26.8355 12.6598C27.4106 13.3948 27.8676 14.2099 28.1951 15.0782L28.7207 16.4722L30.1604 16.853C32.2246 17.4015 33.6681 19.2791 33.6681 21.4233C33.6681 22.703 33.1653 23.9027 32.2513 24.7978C31.5086 25.529 30.5412 25.9822 29.5129 26.1117C29.3606 26.1308 29.2501 26.2603 29.2501 26.4126V28.7168C29.2501 28.8958 29.4063 29.0367 29.5853 29.0215C33.4586 28.6711 36.536 25.4414 36.5626 21.4729C36.5855 17.9156 34.1746 14.9183 30.903 14.0499Z" fill="#383838"/>
</svg>
