<svg width="60" height="65" viewBox="0 0 60 65" fill="none" xmlns="http://www.w3.org/2000/svg">
<path d="M22.1751 24.1728H26.6315C26.8791 24.1728 27.1267 23.9081 27.1267 23.6435V19.6732C27.1267 19.4085 26.8791 19.1439 26.6315 19.1439H22.1751C21.9275 19.1439 21.68 19.4085 21.68 19.6732V23.9081C21.68 23.9081 21.9275 24.1728 22.1751 24.1728V24.1728ZM28.117 30.2605H32.5734C32.821 30.2605 33.0685 29.9958 33.0685 29.7311V25.4962C33.0685 25.2315 32.821 24.9669 32.5734 24.9669H28.117C27.8694 24.9669 27.6218 25.2315 27.6218 25.4962V29.7311C27.6218 29.9958 27.8694 30.2605 28.117 30.2605V30.2605ZM28.117 24.1728H32.5734C32.821 24.1728 33.0685 23.9081 33.0685 23.6435V19.6732L32.5734 19.1439H28.117C27.8694 19.1439 27.6218 19.4085 27.6218 19.6732V23.9081C27.6218 23.9081 27.8694 24.1728 28.117 24.1728V24.1728ZM34.3064 30.2605H38.7628C39.0104 30.2605 39.258 29.9958 39.258 29.7311V25.4962C39.258 25.2315 39.0104 24.9669 38.7628 24.9669H34.3064C34.0588 24.9669 33.8113 25.2315 33.8113 25.4962V29.7311C33.8113 29.9958 34.0588 30.2605 34.3064 30.2605V30.2605ZM28.117 18.0851H32.5734C32.821 18.0851 33.0685 17.8204 33.0685 17.5558V13.5855C33.0685 13.3208 32.821 13.0562 32.5734 13.0562H28.117C27.8694 13.0562 27.6218 13.3208 27.6218 13.5855V17.8204C27.6218 18.0851 27.8694 18.0851 28.117 18.0851V18.0851ZM9.79624 30.2605H14.2526C14.5002 30.2605 14.7478 29.9958 14.7478 29.7311V25.4962C14.7478 25.2315 14.5002 24.9669 14.2526 24.9669H9.79624C9.54866 24.9669 9.30109 25.2315 9.30109 25.4962V29.7311L9.79624 30.2605V30.2605ZM54.3602 27.6137C53.1223 26.8196 51.6369 26.2903 50.399 26.555C49.6562 26.555 48.9135 26.555 48.4183 26.8196C47.9232 24.4375 46.6853 22.32 44.9523 21.2613L44.2095 20.7319L43.7144 21.526C42.9716 22.0554 42.4765 23.1141 42.2289 24.4375C41.7338 26.555 41.9813 28.6724 42.9716 30.2605C41.7338 30.7899 40.4959 31.0546 39.258 31.3192H6.82531C6.08258 31.3192 5.33984 32.1133 5.33984 32.9073C5.33984 36.0835 5.835 38.995 6.82531 41.9065C7.81562 44.8181 9.54866 47.2002 11.7769 48.7883C15.2429 50.6411 18.9566 51.4351 22.6703 51.1704C24.6509 51.1704 26.6315 50.9057 28.6121 50.6411C31.3355 50.1117 34.0588 49.053 36.5346 47.4649C38.5152 46.1415 40.2483 44.5534 41.9813 42.7006C44.2095 39.7891 45.9426 36.6129 47.1805 32.9073H47.6756C49.6562 32.9073 51.6369 32.1133 53.1223 30.7899C53.8651 30.2605 54.3602 29.4665 54.6078 28.4077L54.8554 27.8784L54.3602 27.6137V27.6137ZM15.9857 30.2605H20.1945C20.4421 30.2605 20.6897 29.9958 20.6897 29.7311V25.4962C20.6897 25.2315 20.4421 24.9669 20.1945 24.9669H15.9857C15.7381 24.9669 15.4905 25.2315 15.4905 25.4962V29.7311C15.4905 29.9958 15.7381 30.2605 15.9857 30.2605V30.2605ZM15.9857 24.1728H20.1945C20.4421 24.1728 20.6897 23.9081 20.6897 23.6435V19.6732C20.6897 19.4085 20.4421 19.1439 20.1945 19.1439H15.9857C15.7381 19.1439 15.4905 19.4085 15.4905 19.6732V23.9081C15.4905 23.9081 15.7381 24.1728 15.9857 24.1728V24.1728ZM22.1751 30.2605H26.6315C26.8791 30.2605 27.1267 29.9958 27.1267 29.7311V25.4962C27.1267 25.2315 26.8791 24.9669 26.6315 24.9669H22.1751C21.9275 24.9669 21.68 25.2315 21.68 25.4962V29.7311C21.68 29.9958 21.9275 30.2605 22.1751 30.2605V30.2605Z" fill="#545454"/>
</svg>
