<svg width="18" height="18" viewBox="0 0 18 18" fill="none" xmlns="http://www.w3.org/2000/svg">
<path d="M12.7503 10.5H9.49459C9.14075 11.5008 8.44449 12.3443 7.52887 12.8815C6.61326 13.4186 5.53724 13.6147 4.49099 13.4352C3.44475 13.2557 2.49565 12.7121 1.81144 11.9005C1.12722 11.0889 0.751953 10.0615 0.751953 9.00001C0.751953 7.93848 1.12722 6.91112 1.81144 6.09952C2.49565 5.28792 3.44475 4.74432 4.49099 4.56482C5.53724 4.38531 6.61326 4.58145 7.52887 5.11856C8.44449 5.65568 9.14075 6.49919 9.49459 7.50001H17.2503V10.5H15.7503V13.5H12.7503V10.5ZM5.25034 10.5C5.64817 10.5 6.0297 10.342 6.311 10.0607C6.59231 9.77937 6.75034 9.39783 6.75034 9.00001C6.75034 8.60218 6.59231 8.22065 6.311 7.93935C6.0297 7.65805 5.64817 7.50001 5.25034 7.50001C4.85252 7.50001 4.47099 7.65805 4.18968 7.93935C3.90838 8.22065 3.75034 8.60218 3.75034 9.00001C3.75034 9.39783 3.90838 9.77937 4.18968 10.0607C4.47099 10.342 4.85252 10.5 5.25034 10.5Z" fill="#161616"/>
</svg>
