<svg width="39" height="44" viewBox="0 0 39 44" fill="none" xmlns="http://www.w3.org/2000/svg">
<path d="M25.2107 8.37891L27.9616 11.1031L21.3194 17.6773V8.37891H25.2107ZM11.0732 11.1031L17.7154 17.6773V8.37891H13.8241L11.0732 11.1031ZM14.6859 7.52812H18.5772V18.5195L19.5174 19.4477L20.4576 18.5195V7.52812H24.3489L19.5174 2.75L14.6859 7.52812ZM16.9667 21.9742L16.0266 21.0461H4.83147V17.1961L0 21.9742L4.83147 26.7523V22.9023H16.0266L16.9667 21.9742ZM23.8701 20.1953H33.2632V16.3453L30.5123 13.6211L23.8701 20.1953ZM38.9565 21.9742L34.125 17.1961V21.0461H23.0083L22.0681 21.9742L23.0083 22.9023H34.125V26.7523L38.9565 21.9742ZM5.6933 15.1422L8.52254 12.418L16.3835 20.1953H17.7154V18.8805L9.85446 11.1031L12.6054 8.37891H5.6933V15.1422ZM33.2632 8.37891H26.4295L29.1804 11.1031L21.3194 18.8805V20.1953H22.6513L30.5123 12.418L33.2632 15.1422V8.37891ZM17.7154 35.5695V26.2797L11.0732 32.8539L13.8241 35.5781H17.7154V35.5695ZM5.6933 20.1953H15.1647L8.52254 13.6211L5.6933 16.3453V20.1953ZM33.2632 28.8063L30.5123 31.5305L22.6513 23.7531H21.3194V25.068L29.1804 32.8453L26.4295 35.5695H33.2632V28.8063ZM33.2632 23.7531H23.8701L30.5123 30.3273L33.2632 27.6031V23.7531ZM27.9616 32.8453L21.3194 26.2711V35.5609H25.2107L27.9616 32.8453ZM8.52254 30.3273L15.1647 23.7531H5.6933V27.6031L8.52254 30.3273ZM24.3489 36.4203H20.4576V25.4289L19.5174 24.5008L18.5772 25.4289V36.4203H14.6859L19.5174 41.1984L24.3489 36.4203ZM9.85446 32.8453L17.7154 25.068V23.7531H16.3835L8.52254 31.5305L5.6933 28.8063V35.5695H12.6054L9.85446 32.8453Z" fill="#161616"/>
</svg>
