<svg width="48" height="48" viewBox="0 0 48 48" fill="none" xmlns="http://www.w3.org/2000/svg">
<path d="M9.77957 23.9999C9.77957 25.0899 9.34655 26.1353 8.57578 26.9061C7.805 27.6769 6.75961 28.1099 5.66957 28.1099C4.57953 28.1099 3.53414 27.6769 2.76336 26.9061C1.99259 26.1353 1.55957 25.0899 1.55957 23.9999C1.55957 22.9099 1.99259 21.8645 2.76336 21.0937C3.53414 20.3229 4.57953 19.8899 5.66957 19.8899C6.75961 19.8899 7.805 20.3229 8.57578 21.0937C9.34655 21.8645 9.77957 22.9099 9.77957 23.9999ZM33.1496 43.9799C33.4194 44.4475 33.7788 44.8574 34.2071 45.1862C34.6353 45.515 35.1242 45.7562 35.6457 45.896C36.1672 46.0359 36.7111 46.0716 37.2464 46.0012C37.7817 45.9309 38.2979 45.7558 38.7656 45.4859C39.2332 45.216 39.6431 44.8567 39.9719 44.4284C40.3006 44.0001 40.5418 43.5113 40.6817 42.9898C40.8215 42.4683 40.8573 41.9244 40.7869 41.3891C40.7166 40.8537 40.5414 40.3375 40.2716 39.8699C39.7265 38.9255 38.8287 38.2362 37.7755 37.9538C36.7223 37.6714 35.6 37.8189 34.6556 38.3639C33.7111 38.9089 33.0219 39.8068 32.7395 40.86C32.457 41.9132 32.6046 43.0355 33.1496 43.9799ZM40.2596 8.1299C40.5477 7.6624 40.7392 7.1419 40.8228 6.59914C40.9064 6.05639 40.8804 5.50238 40.7463 4.96985C40.6122 4.43732 40.3727 3.93707 40.042 3.49864C39.7113 3.0602 39.2961 2.69249 38.821 2.41721C38.3458 2.14192 37.8203 1.96466 37.2754 1.89589C36.7306 1.82711 36.1775 1.86822 35.6488 2.01678C35.1201 2.16534 34.6266 2.41835 34.1973 2.76085C33.7681 3.10335 33.4118 3.5284 33.1496 4.0109C32.6383 4.9516 32.5143 6.05467 32.8039 7.0854C33.0936 8.11613 33.774 8.99315 34.7004 9.52984C35.6269 10.0665 36.7261 10.2205 37.7644 9.95909C38.8026 9.69763 39.6978 9.04136 40.2596 8.1299ZM26.3696 12.2999C29.2938 12.2956 32.1136 13.3865 34.2736 15.3577C36.4336 17.3289 37.7771 20.0375 38.0396 22.9499H44.0396C43.7488 18.6464 41.9044 14.5951 38.8496 11.5499C38.0461 11.8695 37.1807 12.0032 36.3183 11.9409C35.4558 11.8785 34.6187 11.6218 33.8696 11.1899C33.1291 10.7436 32.4938 10.1426 32.0071 9.4281C31.5204 8.71357 31.1938 7.90234 31.0496 7.0499C29.5421 6.65061 27.9891 6.44892 26.4296 6.4499C23.7129 6.44351 21.032 7.07007 18.5996 8.2799L21.5996 13.4699C23.0901 12.7502 24.7152 12.3516 26.3696 12.2999ZM14.6396 23.9999C14.6435 22.1185 15.0976 20.2653 15.9639 18.5952C16.8303 16.9251 18.0837 15.4866 19.6196 14.3999L16.6196 9.2999C13.0211 11.6973 10.4189 15.3233 9.29957 19.4999C9.9749 20.0395 10.5201 20.7242 10.8948 21.5031C11.2695 22.2821 11.4641 23.1355 11.4641 23.9999C11.4641 24.8643 11.2695 25.7177 10.8948 26.4967C10.5201 27.2756 9.9749 27.9603 9.29957 28.4999C10.4037 32.6673 12.9836 36.2919 16.5596 38.6999L19.5596 33.5999C18.0348 32.5066 16.793 31.0653 15.9372 29.3956C15.0815 27.7259 14.6366 25.8761 14.6396 23.9999ZM26.3696 35.7299C24.6593 35.7169 22.9716 35.3384 21.4196 34.6199L18.4196 39.8099C20.8496 41.0189 23.5316 41.6459 26.2496 41.6399C27.8096 41.6399 29.3636 41.4389 30.8696 41.0399C31.0136 40.1874 31.3401 39.3761 31.8269 38.6615C32.3136 37.947 32.949 37.346 33.6896 36.8999C34.4388 36.4682 35.2759 36.2116 36.1383 36.1493C37.0007 36.0869 37.8661 36.2205 38.6696 36.5399C41.7244 33.4947 43.5688 29.4434 43.8596 25.1399H37.8596C37.5798 28.0083 36.2539 30.6734 34.1346 32.6266C32.0154 34.5799 29.2513 35.6845 26.3696 35.7299Z" fill="#545454"/>
</svg>
