<svg width="20" height="20" viewBox="0 0 20 20" fill="none"
    xmlns="http://www.w3.org/2000/svg">
    <path d="M10.0004 5.83325C9.92676 5.83325 9.85611 5.86252 9.80402 5.91461C9.75192 5.9667 9.72266 6.03736 9.72266 6.11103V13.8888C9.72266 13.9625 9.75192 14.0331 9.80402 14.0852C9.85611 14.1373 9.92676 14.1666 10.0004 14.1666C10.0741 14.1666 10.1448 14.1373 10.1969 14.0852C10.2489 14.0331 10.2782 13.9625 10.2782 13.8888V6.11103C10.2782 6.03736 10.2489 5.9667 10.1969 5.91461C10.1448 5.86252 10.0741 5.83325 10.0004 5.83325Z" fill="white"/>
    <path d="M10.0004 17.7777C14.296 17.7777 17.7782 14.2955 17.7782 9.99995C17.7782 5.7044 14.296 2.22217 10.0004 2.22217C5.70489 2.22217 2.22266 5.7044 2.22266 9.99995C2.22266 14.2955 5.70489 17.7777 10.0004 17.7777Z" stroke="white" stroke-width="2" stroke-linejoin="round"/>
    <path d="M10.0004 5.83325C9.92676 5.83325 9.85611 5.86252 9.80402 5.91461C9.75192 5.9667 9.72266 6.03736 9.72266 6.11103V13.8888C9.72266 13.9625 9.75192 14.0331 9.80402 14.0852C9.85611 14.1373 9.92676 14.1666 10.0004 14.1666C10.0741 14.1666 10.1448 14.1373 10.1969 14.0852C10.2489 14.0331 10.2782 13.9625 10.2782 13.8888V6.11103C10.2782 6.03736 10.2489 5.9667 10.1969 5.91461C10.1448 5.86252 10.0741 5.83325 10.0004 5.83325Z" stroke="white" stroke-width="2" stroke-linejoin="round"/>
</svg>
