<svg width="20" height="16" viewBox="0 0 20 16" fill="none" xmlns="http://www.w3.org/2000/svg">
<path d="M18.1429 0H1.85714C1.49721 0 1.15201 0.140476 0.897498 0.390524C0.642984 0.640573 0.5 0.979711 0.5 1.33333V14.6667C0.5 15.0203 0.642984 15.3594 0.897498 15.6095C1.15201 15.8595 1.49721 16 1.85714 16H18.1429C18.5028 16 18.848 15.8595 19.1025 15.6095C19.357 15.3594 19.5 15.0203 19.5 14.6667V1.33333C19.5 0.979711 19.357 0.640573 19.1025 0.390524C18.848 0.140476 18.5028 0 18.1429 0ZM18.1429 14.6667H7.28571V10.6667H5.92857V14.6667H1.85714V8.66667H12.831L10.3976 11.0573L11.3571 12L15.4286 8L11.3571 4L10.3976 4.94267L12.831 7.33333H1.85714V1.33333H5.92857V5.33333H7.28571V1.33333H18.1429V14.6667Z" fill="white"/>
</svg>
